# xmcd
#
# Track frame offsets: 
#        150
#        26019
#        43369
#        65696
#        88799
#        105518
#        129812
#        150554
#        170253
#
# Disc length: 2561 seconds
#
# Revision: 0
# Processed by: cddbd v1.5.2PL0 Copyright (c) Steve Scherf et al.
# Submitted via: ExactAudioCopyFreeDBPlugin 1.0
#
DISCID=6e09ff09
DTITLE=Erik Koskinen - Burning The Deal
DYEAR=2019
DGENRE=Blues
TTITLE0=Gun
TTITLE1=Darlin'
TTITLE2=Big Plane
TTITLE3=Ordinary Fool
TTITLE4=Pony To Ride
TTITLE5=Down In The Factory
TTITLE6=Losers Like Me And You
TTITLE7=Crazy
TTITLE8=Sell Out
EXTD=
EXTT0=
EXTT1=
EXTT2=
EXTT3=
EXTT4=
EXTT5=
EXTT6=
EXTT7=
EXTT8=
PLAYORDER=
